<?xml version="1.0" encoding="UTF-8" standalone="no"?>
<svg
   xmlns:dc="http://purl.org/dc/elements/1.1/"
   xmlns:cc="http://creativecommons.org/ns#"
   xmlns:rdf="http://www.w3.org/1999/02/22-rdf-syntax-ns#"
   xmlns:svg="http://www.w3.org/2000/svg"
   xmlns="http://www.w3.org/2000/svg"
   xmlns:sodipodi="http://sodipodi.sourceforge.net/DTD/sodipodi-0.dtd"
   xmlns:inkscape="http://www.inkscape.org/namespaces/inkscape"
   version="1.1"
   id="svg860"
   width="707.67212"
   height="692.45905"
   viewBox="0 0 707.67212 692.45905"
   sodipodi:docname="iwnq wektoryzowane.svg"
   inkscape:version="1.0.2-2 (e86c870879, 2021-01-15)">
  <metadata
     id="metadata866">
    <rdf:RDF>
      <cc:Work
         rdf:about="">
        <dc:format>image/svg+xml</dc:format>
        <dc:type
           rdf:resource="http://purl.org/dc/dcmitype/StillImage" />
        <dc:title></dc:title>
      </cc:Work>
    </rdf:RDF>
  </metadata>
  <defs
     id="defs864" />
  <sodipodi:namedview
     pagecolor="#ffffff"
     bordercolor="#666666"
     borderopacity="1"
     objecttolerance="10"
     gridtolerance="10"
     guidetolerance="10"
     inkscape:pageopacity="0"
     inkscape:pageshadow="2"
     inkscape:window-width="1366"
     inkscape:window-height="716"
     id="namedview862"
     showgrid="false"
     inkscape:zoom="0.79138254"
     inkscape:cx="351.9124"
     inkscape:cy="320.35193"
     inkscape:window-x="-8"
     inkscape:window-y="-8"
     inkscape:window-maximized="1"
     inkscape:current-layer="g868" />
  <g
     inkscape:groupmode="layer"
     inkscape:label="Image"
     id="g868">
    <g
       id="g1447">
      <path
         style="fill:#d0d0d0;fill-opacity:1;stroke-width:0.52459"
         d="m 462.20534,468.67762 c 0.0252,-0.61112 0.14948,-0.73542 0.31694,-0.31694 0.15154,0.37868 0.1329,0.83115 -0.0414,1.00546 -0.17432,0.17432 -0.2983,-0.13552 -0.27553,-0.68852 z m -277.05325,-280.21859 -1.80783,-1.96722 1.96721,1.80783 c 1.83104,1.68268 2.20842,2.1266 1.80783,2.1266 -0.0877,0 -0.97291,-0.88525 -1.96721,-1.96721 z m 91.73315,-5.73541 c 0.37869,-0.15154 0.83115,-0.1329 1.00547,0.0414 0.17431,0.17432 -0.13552,0.29831 -0.68853,0.27553 -0.61112,-0.0252 -0.73542,-0.14948 -0.31694,-0.31694 z m 141.63934,0 c 0.37869,-0.15154 0.83115,-0.1329 1.00547,0.0414 0.17432,0.17432 -0.13552,0.29831 -0.68852,0.27553 -0.61113,-0.0252 -0.73543,-0.14948 -0.31695,-0.31694 z m 12.59017,0 c 0.37868,-0.15154 0.83115,-0.1329 1.00546,0.0414 0.17432,0.17432 -0.13552,0.29831 -0.68852,0.27553 -0.61112,-0.0252 -0.73542,-0.14948 -0.31694,-0.31694 z m -82.36066,-15.21311 c 0.37869,-0.15154 0.83115,-0.13291 1.00547,0.0414 0.17432,0.17431 -0.13552,0.2983 -0.68853,0.27552 -0.61112,-0.0252 -0.73542,-0.14947 -0.31694,-0.31693 z"
         id="path1459" />
      <path
         style="fill:#b9b9b9;fill-opacity:1;stroke-width:0.52459"
         d="m 278.9836,176.95313 c 0.37869,-0.15154 0.83115,-0.1329 1.00547,0.0414 0.17431,0.17432 -0.13552,0.2983 -0.68853,0.27553 -0.61112,-0.0252 -0.73542,-0.14948 -0.31694,-0.31694 z m 7.34426,0 c 0.37869,-0.15154 0.83115,-0.1329 1.00547,0.0414 0.17432,0.17432 -0.13552,0.2983 -0.68852,0.27553 -0.61113,-0.0252 -0.73543,-0.14948 -0.31695,-0.31694 z m 142.16394,0 c 0.37868,-0.15154 0.83115,-0.1329 1.00546,0.0414 0.17432,0.17432 -0.13552,0.2983 -0.68852,0.27553 -0.61112,-0.0252 -0.73542,-0.14948 -0.31694,-0.31694 z m -131.67213,-1.57377 c 0.37868,-0.15154 0.83115,-0.1329 1.00546,0.0414 0.17432,0.17432 -0.13552,0.2983 -0.68852,0.27553 -0.61112,-0.0252 -0.73542,-0.14948 -0.31694,-0.31694 z m 240.92663,-6.76733 c 0.0252,-0.61112 0.14951,-0.73542 0.31696,-0.31694 0.15155,0.37869 0.13293,0.83115 -0.0415,1.00547 -0.17432,0.17431 -0.29833,-0.13553 -0.27556,-0.68853 z"
         id="path1457" />
      <path
         style="fill:#a3a3a3;fill-opacity:1;stroke-width:0.52459"
         d="m 532.5004,398.90712 c 0.0252,-0.61112 0.14951,-0.73542 0.31696,-0.31694 0.15155,0.37869 0.13293,0.83115 -0.0415,1.00547 -0.17432,0.17432 -0.29833,-0.13552 -0.27556,-0.68853 z M 273.97719,182.19385 c 0.51041,-0.133 1.21861,-0.12426 1.57377,0.0195 0.35517,0.1437 -0.0624,0.25252 -0.92801,0.24183 -0.86558,-0.0107 -1.15617,-0.12826 -0.64576,-0.26126 z m 141.62936,0.002 c 0.50492,-0.13195 1.33115,-0.13195 1.83607,0 0.50491,0.13195 0.0918,0.23991 -0.91804,0.23991 -1.00983,0 -1.42295,-0.10796 -0.91803,-0.23991 z m -97.27869,-11.5379 c 0.37869,-0.15154 0.83115,-0.13291 1.00547,0.0414 0.17432,0.17432 -0.13552,0.2983 -0.68852,0.27552 -0.61113,-0.0252 -0.73543,-0.14947 -0.31695,-0.31693 z M 176.16393,147.05149 c 0.37869,-0.15154 0.83115,-0.1329 1.00547,0.0414 0.17431,0.17432 -0.13552,0.2983 -0.68853,0.27553 -0.61112,-0.0252 -0.73542,-0.14948 -0.31694,-0.31694 z m 363.54098,-1.57377 c 0.3787,-0.15154 0.83116,-0.13291 1.00548,0.0414 0.17432,0.17432 -0.13555,0.2983 -0.68852,0.27553 -0.61115,-0.0252 -0.73543,-0.14948 -0.31696,-0.31694 z"
         id="path1455" />
      <path
         style="fill:#8c8c8c;fill-opacity:1;stroke-width:0.52459"
         d="m 291.27868,182.19577 c 0.50492,-0.13194 1.33115,-0.13194 1.83607,0 0.50492,0.13195 0.0918,0.23991 -0.91803,0.23991 -1.00984,0 -1.42295,-0.10796 -0.91804,-0.23991 z m 141.63935,0 c 0.50491,-0.13194 1.33114,-0.13194 1.83606,0 0.50492,0.13195 0.0918,0.23991 -0.91803,0.23991 -1.00984,0 -1.42295,-0.10796 -0.91803,-0.23991 z m -150.55017,-4.73613 c 0.79741,-0.12058 1.97774,-0.11736 2.62296,0.007 0.64521,0.12452 -0.007,0.22317 -1.44984,0.21924 -1.44262,-0.004 -1.97052,-0.10582 -1.17312,-0.2264 z m 33.33705,0.0181 c 0.37869,-0.15154 0.83115,-0.13291 1.00547,0.0414 0.17432,0.17431 -0.13552,0.2983 -0.68853,0.27552 -0.61112,-0.0252 -0.73542,-0.14947 -0.31694,-0.31693 z m 108.3023,-0.0181 c 0.7974,-0.12058 1.97773,-0.11736 2.62295,0.007 0.64521,0.12452 -0.007,0.22317 -1.44984,0.21924 -1.44262,-0.004 -1.97052,-0.10582 -1.17311,-0.2264 z M 295.2459,175.90395 c 0.37868,-0.15154 0.83115,-0.1329 1.00546,0.0414 0.17432,0.17432 -0.13552,0.2983 -0.68852,0.27553 -0.61112,-0.0252 -0.73542,-0.14948 -0.31694,-0.31694 z m 117.50819,0 c 0.37869,-0.15154 0.83115,-0.1329 1.00547,0.0414 0.17431,0.17432 -0.13552,0.2983 -0.68853,0.27553 -0.61112,-0.0252 -0.73542,-0.14948 -0.31694,-0.31694 z m -42.4918,-1.57377 c 0.37869,-0.15154 0.83115,-0.1329 1.00547,0.0414 0.17431,0.17432 -0.13553,0.2983 -0.68853,0.27553 -0.61112,-0.0252 -0.73542,-0.14948 -0.31694,-0.31694 z"
         id="path1453" />
      <path
         style="fill:#767676;fill-opacity:1;stroke-width:0.52459"
         d="m 337.71103,549.92407 c 0.65254,-0.12549 1.5968,-0.12071 2.09836,0.0105 0.50156,0.1313 -0.0324,0.23397 -1.18644,0.22814 -1.1541,-0.006 -1.56446,-0.11326 -0.91192,-0.23874 z m 30.68962,-0.005 c 0.79741,-0.12055 1.97774,-0.11735 2.62295,0.007 0.64522,0.12449 -0.007,0.22317 -1.44984,0.21923 -1.44262,-0.005 -1.97052,-0.10581 -1.17311,-0.22641 z m 32.42765,-14.09348 c 0.0252,-0.61115 0.14947,-0.73543 0.31693,-0.31696 0.15154,0.3787 0.13291,0.83116 -0.0414,1.00548 -0.17431,0.17432 -0.2983,-0.13555 -0.27552,-0.68852 z m -87.60656,-7.86886 c 0.0252,-0.61114 0.14948,-0.73542 0.31694,-0.31695 0.15153,0.3787 0.1329,0.83116 -0.0414,1.00548 -0.17432,0.17432 -0.29831,-0.13555 -0.27553,-0.68853 z m -76.6985,-58.31711 c -0.65252,-0.83203 -0.63396,-0.85059 0.19807,-0.19807 0.50492,0.39599 0.91803,0.8091 0.91803,0.91804 0,0.43175 -0.43079,0.15386 -1.1161,-0.71997 z m 287.01774,-38.6243 c 0,-0.10893 0.41311,-0.52204 0.91803,-0.91803 0.83205,-0.65252 0.85057,-0.63397 0.19808,0.19806 -0.68533,0.87384 -1.11611,1.15173 -1.11611,0.71997 z m -346.18809,-26.3377 c 0.0252,-0.61112 0.14948,-0.73543 0.31694,-0.31694 0.15153,0.37868 0.1329,0.83115 -0.0414,1.00546 -0.17432,0.17432 -0.29831,-0.13552 -0.27553,-0.68852 z m 364.06554,-16.78689 c 0.0252,-0.61112 0.14951,-0.73542 0.31696,-0.31694 0.15155,0.37869 0.13293,0.83115 -0.0414,1.00547 -0.17433,0.17431 -0.29834,-0.13553 -0.27557,-0.68853 z m 1.65409,-10.18579 c 0,-1.00984 0.10796,-1.42295 0.23989,-0.91804 0.13199,0.50492 0.13199,1.33115 0,1.83607 -0.13193,0.50492 -0.23989,0.0918 -0.23989,-0.91803 z m 0.0283,-45.90165 c 0.005,-1.44262 0.10581,-1.97052 0.22642,-1.17311 0.12055,0.79741 0.11735,1.97774 -0.007,2.62295 -0.12448,0.64522 -0.22316,-0.007 -0.21922,-1.44984 z m -25.7721,-116.72131 c 0,-0.72131 0.11907,-1.0164 0.2646,-0.65574 0.14553,0.36066 0.14553,0.95082 0,1.31148 -0.14553,0.36065 -0.2646,0.0656 -0.2646,-0.65574 z M 302.06557,180.62526 c 0.37868,-0.15154 0.83115,-0.1329 1.00547,0.0414 0.17431,0.17432 -0.13553,0.29831 -0.68853,0.27553 -0.61112,-0.0252 -0.73542,-0.14948 -0.31694,-0.31694 z m 103.86885,0 c 0.37869,-0.15154 0.83115,-0.1329 1.00547,0.0414 0.17431,0.17432 -0.13553,0.29831 -0.68853,0.27553 -0.61112,-0.0252 -0.73542,-0.14948 -0.31694,-0.31694 z m 135.21406,-1.36919 c 0.19698,-0.51736 0.49033,-0.80851 0.65185,-0.64699 0.16152,0.16151 3.2e-4,0.58481 -0.35819,0.94066 -0.51808,0.51423 -0.57836,0.45398 -0.29366,-0.29367 z m -148.8534,-1.77835 c 0.37868,-0.15154 0.83115,-0.1329 1.00546,0.0414 0.17432,0.17432 -0.13552,0.2983 -0.68852,0.27553 -0.61112,-0.0252 -0.73543,-0.14948 -0.31694,-0.31694 z m -125.53727,-2.78318 c -0.18379,-0.29737 0.0268,-0.38531 0.49363,-0.20617 0.90881,0.34874 1.07509,0.72475 0.3205,0.72475 -0.2715,0 -0.63786,-0.23336 -0.81413,-0.51858 z m 34.61923,-0.006 c 1.44215,-0.61971 2.27041,-0.61971 1.31148,0 -0.43279,0.27969 -1.14098,0.49555 -1.57377,0.47969 -0.51885,-0.019 -0.4295,-0.18241 0.26229,-0.47969 z m 139.27869,0.31842 c 0,-0.11339 0.36636,-0.34675 0.81413,-0.51858 0.46685,-0.17914 0.67742,-0.0912 0.49363,0.20617 -0.30807,0.49847 -1.30776,0.73728 -1.30776,0.31241 z m -99.77049,-1.20136 c 0.37869,-0.15154 0.83115,-0.1329 1.00547,0.0414 0.17431,0.17432 -0.13553,0.2983 -0.68853,0.27553 -0.61112,-0.0252 -0.73542,-0.14948 -0.31694,-0.31694 z m 58.59016,-0.69083 c -0.69179,-0.29727 -0.78114,-0.46067 -0.26229,-0.47968 0.43279,-0.0159 1.14098,0.19999 1.57377,0.47968 0.95893,0.61971 0.13067,0.61971 -1.31148,0 z m 45.76175,-0.0651 c 0.35585,-0.35852 0.77914,-0.5197 0.94066,-0.35818 0.16151,0.16151 -0.12963,0.45484 -0.64699,0.65184 -0.74765,0.28469 -0.80791,0.22443 -0.29367,-0.29366 z m 97.75505,-0.24092 c 0.0252,-0.61112 0.14951,-0.73542 0.31696,-0.31694 0.15155,0.37869 0.13293,0.83115 -0.0414,1.00547 -0.17433,0.17431 -0.29834,-0.13552 -0.27557,-0.68853 z m -234.10696,-0.0523 c 0.37869,-0.15154 0.83115,-0.13291 1.00547,0.0414 0.17431,0.17432 -0.13553,0.2983 -0.68853,0.27552 -0.61112,-0.0252 -0.73542,-0.14947 -0.31694,-0.31693 z m 6.29508,-1.04918 c 0.37869,-0.15154 0.83115,-0.13291 1.00547,0.0414 0.17432,0.17432 -0.13552,0.2983 -0.68853,0.27552 -0.61112,-0.0252 -0.73542,-0.14947 -0.31694,-0.31693 z m 76.47307,-0.0905 c -0.15256,-0.24684 0.30564,-0.33735 1.01822,-0.20114 0.71258,0.13622 1.2956,0.33818 1.2956,0.44881 0,0.4059 -2.04519,0.18699 -2.31382,-0.24767 z m -67.55503,-1.4833 c 0.37868,-0.15154 0.83115,-0.13291 1.00546,0.0414 0.17432,0.17431 -0.13552,0.2983 -0.68852,0.27552 -0.61112,-0.0252 -0.73543,-0.14947 -0.31694,-0.31693 z m 59.27868,0 c 0.37869,-0.15154 0.83115,-0.13291 1.00547,0.0414 0.17432,0.17431 -0.13552,0.2983 -0.68853,0.27552 -0.61112,-0.0252 -0.73542,-0.14947 -0.31694,-0.31693 z M 337.7377,168.5597 c 0.37869,-0.15154 0.83115,-0.13291 1.00547,0.0414 0.17431,0.17431 -0.13553,0.2983 -0.68853,0.27552 -0.61112,-0.0252 -0.73542,-0.14947 -0.31694,-0.31693 z m 32.52459,0 c 0.37869,-0.15154 0.83115,-0.13291 1.00547,0.0414 0.17431,0.17431 -0.13553,0.2983 -0.68853,0.27552 -0.61112,-0.0252 -0.73542,-0.14947 -0.31694,-0.31693 z m -28.85246,-0.52459 c 0.37869,-0.15154 0.83115,-0.13291 1.00547,0.0414 0.17431,0.17431 -0.13553,0.2983 -0.68853,0.27552 -0.61112,-0.0252 -0.73542,-0.14947 -0.31694,-0.31693 z m 9.96721,-0.52459 c 0.37869,-0.15154 0.83115,-0.13291 1.00547,0.0414 0.17432,0.17431 -0.13552,0.2983 -0.68852,0.27552 -0.61113,-0.0252 -0.73543,-0.14947 -0.31695,-0.31693 z m 5.21312,0.0109 c 0.36065,-0.14553 0.95082,-0.14553 1.31147,0 0.36066,0.14553 0.0656,0.2646 -0.65573,0.2646 -0.72132,0 -1.0164,-0.11907 -0.65574,-0.2646 z m 107.14754,-4.04735 c 0,-0.10893 0.41311,-0.52204 0.91803,-0.91803 0.83203,-0.65252 0.85059,-0.63397 0.19806,0.19807 -0.6853,0.87383 -1.11609,1.15172 -1.11609,0.71996 z m -247.61801,-3.34038 c 1.58059,-0.10824 2.99699,-0.35966 3.14754,-0.55869 0.15057,-0.19903 0.74588,-0.70883 1.32293,-1.13289 0.77477,-0.56936 0.71656,-0.39785 -0.22259,0.65574 -1.12361,1.26053 -1.61253,1.41544 -4.19672,1.32971 l -2.92495,-0.097 z m 272.1426,-0.70199 c -1.32748,-1.4539 -1.129,-1.91111 0.26229,-0.60421 0.82627,0.77614 2.04581,1.16787 4.06558,1.30588 l 2.88524,0.19715 -3.14754,0.0533 c -2.47802,0.042 -3.34282,-0.16055 -4.06557,-0.95214 z m 31.08196,-14.85098 c 0,-0.11339 0.36636,-0.34675 0.81414,-0.51858 0.46684,-0.17914 0.67741,-0.0912 0.49363,0.20617 -0.30808,0.49847 -1.30777,0.73728 -1.30777,0.31241 z m 5.49928,-1.87779 c 0.14017,-0.22679 0.73102,-0.53686 1.31295,-0.68904 0.58192,-0.15218 0.94342,-0.0911 0.80325,0.13565 -0.14017,0.22679 -0.73102,0.53686 -1.31294,0.68904 -0.58193,0.15218 -0.94343,0.0911 -0.80326,-0.13565 z m -349.33789,-2.06384 c -0.16168,-0.26161 0.17848,-0.35211 0.75593,-0.20111 1.22491,0.32032 1.37975,0.67678 0.29398,0.67678 -0.41576,0 -0.88822,-0.21405 -1.04991,-0.47567 z m -11.68654,-0.95975 c 1.3792,-0.10842 3.50379,-0.10711 4.72131,0.003 1.21753,0.11002 0.0891,0.19872 -2.50763,0.19712 -2.59672,-0.002 -3.59287,-0.0916 -2.21368,-0.20003 z m 376.91978,-0.001 c 1.52446,-0.10631 3.88511,-0.10519 5.2459,0.003 1.36084,0.10768 0.11357,0.19465 -2.77167,0.19328 -2.88525,-0.002 -3.99864,-0.0894 -2.47423,-0.19576 z"
         id="path1451" />
      <path
         style="fill:#606060;fill-opacity:1;stroke-width:0.52459"
         d="m 322.33839,550.12178 c -2.03192,-2.06861 -4.74667,-4.57857 -6.03279,-5.57775 -1.28612,-0.99914 -2.41708,-2.00242 -2.51325,-2.22951 -0.0962,-0.22704 -0.45028,-0.42287 -0.78689,-0.43504 -1.78268,-0.0647 -4.99173,-6.96415 -5.05261,-10.86306 -0.0101,-0.64918 -0.23375,-1.18033 -0.49691,-1.18033 -0.26316,0 -0.63801,-0.94426 -0.83299,-2.09836 -0.19499,-1.1541 -0.56983,-2.09836 -0.833,-2.09836 -0.26316,0 -0.47848,0.0591 -0.47848,0.13136 0,0.69713 1.5488,7.27271 1.81412,7.70198 0.19135,0.30961 0.55768,1.68362 0.81406,3.05332 0.25638,1.36971 0.68249,3.49367 0.9469,4.7199 0.26442,1.22623 0.31841,2.22951 0.11997,2.22951 -0.4267,0 -3.57356,-3.68341 -4.41806,-5.17136 -3.27674,-5.77343 -3.9983,-7.1764 -3.9983,-7.77427 0,-0.38154 -0.22016,-0.69372 -0.48924,-0.69372 -0.26908,0 -0.64578,-0.49322 -0.8371,-1.09602 -0.19133,-0.60281 -0.84336,-2.19625 -1.44897,-3.54099 -0.60561,-1.34472 -1.16524,-2.81579 -1.24363,-3.26905 -0.0784,-0.45325 -0.5031,-1.51554 -0.94381,-2.36065 -0.4407,-0.84511 -0.81024,-1.89067 -0.82119,-2.32345 -0.011,-0.43279 -0.36651,-1.24512 -0.79012,-1.80519 -0.42361,-0.56006 -0.7702,-1.51822 -0.7702,-2.12924 0,-0.61102 -0.34659,-1.56918 -0.77021,-2.12924 -0.4236,-0.56007 -0.7777,-1.77596 -0.78688,-2.70199 -0.0233,-2.3519 -1.83909,-4.00115 -6.43024,-5.84053 -1.68624,-0.67557 -5.79068,-5.79194 -8.00319,-9.97635 -0.86036,-1.62714 -1.70917,-3.07648 -1.88623,-3.22074 -0.37934,-0.30906 -1.3336,-2.12109 -3.63428,-6.90106 -1.65322,-3.43478 -1.74166,-3.51694 -5.4711,-5.08242 -2.08489,-0.87517 -4.42316,-1.74994 -5.19614,-1.94395 -0.77298,-0.19401 -1.52253,-0.54222 -1.66566,-0.77383 -0.14314,-0.23159 -1.38025,-0.95 -2.74914,-1.59646 -1.36889,-0.64646 -2.93736,-1.55214 -3.48548,-2.01261 -0.95117,-0.79906 -0.97998,-0.76549 -0.63216,0.73656 0.54388,2.34878 2.09783,6.02857 2.54677,6.03082 0.2164,10e-4 0.39345,0.26281 0.39345,0.58162 0,0.31881 0.71928,1.64543 1.5984,2.94804 0.87912,1.30262 1.5283,2.43732 1.44262,2.52156 -0.33017,0.32465 -3.04102,-0.42407 -3.04102,-0.8399 0,-0.24135 -0.88525,-0.85079 -1.96722,-1.35431 -1.75676,-0.81755 -4.67481,-2.62575 -5.37705,-3.33193 -0.14426,-0.14508 -1.32459,-0.96749 -2.62295,-1.82758 -1.29836,-0.8601 -2.83278,-1.95752 -3.40983,-2.43871 -6.2575,-5.2181 -11.2927,-10.37813 -14.50643,-14.86606 -1.14175,-1.59443 -2.21527,-2.89897 -2.38561,-2.89897 -0.54728,0 0.25369,10.58789 0.84576,11.17996 0.66407,0.66406 0.77006,2.45939 0.14519,2.45939 -0.23412,0 -0.93244,-0.47213 -1.55183,-1.04918 -0.61939,-0.57705 -1.23222,-1.04918 -1.36185,-1.04918 -0.12963,0 -1.21924,-0.88525 -2.42137,-1.96721 -2.99306,-2.6939 -15.20953,-14.81968 -14.93051,-14.81968 0.35858,0 -1.91363,-2.65939 -4.59073,-5.37299 -1.35426,-1.37272 -2.71164,-2.49586 -3.01639,-2.49586 -0.30476,0 -0.5541,-0.18517 -0.5541,-0.41148 0,-0.22632 -0.7082,-0.82983 -1.57377,-1.34114 -0.86558,-0.51131 -1.57377,-0.79278 -1.57377,-0.62549 0,0.51798 -5.19339,-3.77076 -6.45228,-5.32835 -2.49123,-3.08231 -7.71166,-10.59137 -7.71166,-11.09243 0,-0.28794 -0.1994,-0.6022 -0.44312,-0.69838 -0.88171,-0.34793 -6.25375,-11.44761 -8.20918,-16.96175 -1.71084,-4.82442 -3.81591,-12.84596 -4.47417,-17.04918 -0.24852,-1.58688 -0.69103,-4.18361 -0.98333,-5.77049 -1.81437,-9.84974 -2.50955,-24.87075 -1.68735,-36.45902 1.25317,-17.66252 1.27108,-18.28578 0.5072,-17.65309 -3.24764,2.68986 -4.17512,3.25785 -4.76488,2.91806 -0.36656,-0.2112 -0.49884,-0.19819 -0.29396,0.0289 0.20489,0.2271 0.0487,1.03899 -0.34694,1.80419 -0.81851,1.58284 -7.98928,8.96751 -8.70775,8.96751 -0.57358,0 -0.0706,-2.91531 0.81452,-4.72131 0.35353,-0.72131 1.77466,-4.85246 3.15807,-9.18033 1.38341,-4.32787 2.71393,-8.09311 2.9567,-8.36721 0.24278,-0.2741 0.44141,-1.04131 0.44141,-1.70492 0,-0.6636 0.23606,-1.20656 0.52459,-1.20656 0.28852,0 0.52459,-0.42221 0.52459,-0.93826 0,-0.51604 0.47213,-1.86431 1.04918,-2.99616 0.57705,-1.13185 1.04918,-2.26282 1.04918,-2.51326 0,-0.64654 2.46144,-6.85774 4.25381,-10.73404 0.83417,-1.80405 1.51668,-3.52383 1.51668,-3.82174 0,-0.2979 0.3273,-1.06449 0.72734,-1.70352 0.73334,-1.17146 1.34121,-4.25752 2.45045,-12.44056 0.6121,-4.5156 1.78845,-8.70154 4.7175,-16.78688 0.88844,-2.45246 1.81268,-5.04918 2.05386,-5.7705 0.40303,-1.20539 1.41184,-3.73771 2.66453,-6.68852 0.27559,-0.64918 0.70505,-1.71148 0.95436,-2.36066 0.24931,-0.64918 0.9575,-2.26848 1.57377,-3.59844 0.61626,-1.32996 1.12048,-2.5568 1.12048,-2.72631 0,-0.29804 1.298,-3.13208 6.10968,-13.33982 2.21427,-4.69748 2.28335,-5.00077 2.26997,-9.96721 -0.0135,-5.00631 -1.06408,-10.51511 -2.49599,-13.08783 -0.35077,-0.63021 -0.63775,-1.53805 -0.63775,-2.01742 0,-0.47937 -0.32534,-1.49817 -0.72298,-2.264 -0.39764,-0.76583 -1.03977,-2.10061 -1.42694,-2.96618 -1.0406,-2.32637 -5.25909,-8.8199 -6.208,-9.55602 -0.45233,-0.35088 -1.04221,-0.5727 -1.31086,-0.49292 -0.6531,0.19396 -1.78252,3.39702 -1.8323,5.19648 -0.049,1.77158 -1.61368,2.0336 -1.61368,0.27022 0,-1.66557 -2.76798,-7.22529 -3.47612,-6.98209 -0.62766,0.21556 -3.05968,-4.24227 -3.63897,-6.67014 -0.18997,-0.79617 -0.55531,-1.57731 -0.81187,-1.73588 -0.25657,-0.15856 -0.46648,-0.93535 -0.46648,-1.72619 0,-0.79084 -0.22239,-1.66215 -0.4942,-1.93625 -0.2718,-0.2741 -0.65056,-1.67869 -0.84168,-3.12131 -0.19112,-1.44262 -0.67693,-3.419 -1.07957,-4.39193 -0.40265,-0.97295 -0.73571,-2.38934 -0.74012,-3.14754 -0.004,-0.75822 -0.24498,-1.73266 -0.53457,-2.16545 -0.45573,-0.68109 -0.63097,-0.64998 -1.30343,0.23141 -0.42731,0.56007 -0.77692,1.46498 -0.77692,2.01093 0,1.59445 -1.09032,0.78174 -1.97725,-1.47382 -0.94882,-2.41297 -1.48241,-10.50095 -0.7535,-11.4214 0.27257,-0.3442 0.66463,-1.56191 0.87125,-2.70604 0.20662,-1.14413 0.70953,-2.72585 1.11759,-3.51494 0.40805,-0.78908 0.74191,-1.8217 0.74191,-2.29469 0,-1.03284 -2.02067,-2.82238 -3.21446,-2.84679 -0.46959,-0.01 -1.13457,-0.35575 -1.47773,-0.76924 -0.50261,-0.60561 -0.36565,-0.92102 0.70433,-1.62209 2.54798,-1.66951 19.63242,-0.68605 24.18458,1.39217 0.57705,0.26344 1.56552,0.57569 2.19661,0.69389 2.16493,0.40548 11.96724,3.57384 12.46568,4.02923 0.2741,0.25042 0.9962,0.45531 1.60466,0.45531 0.60846,0 1.56452,0.34659 2.12459,0.77021 0.56006,0.4236 1.49692,0.7777 2.0819,0.78688 0.58498,0.009 1.52924,0.33193 2.09836,0.71724 0.56911,0.3853 3.39541,1.62465 6.28066,2.7541 2.88524,1.12944 5.42295,2.13223 5.63934,2.2284 0.64754,0.2878 0.44806,-0.95038 -0.46212,-2.86844 -0.47055,-0.99162 -0.72259,-1.93591 -0.56008,-2.09842 0.35457,-0.35457 10.83182,3.38754 11.38286,4.06556 0.14426,0.1775 0.85246,0.50148 1.57377,0.71994 0.72131,0.21846 1.59568,0.62426 1.94304,0.90177 0.34737,0.2775 2.23589,1.31333 4.19672,2.30184 1.96084,0.9885 4.98155,2.6108 6.7127,3.60509 1.73114,0.9943 3.72337,2.06532 4.42717,2.38004 0.7038,0.31472 3.2211,1.74492 5.594,3.17822 2.3729,1.4333 5.10198,2.9601 6.06463,3.39289 0.96264,0.43279 2.10436,0.9859 2.53715,1.22913 2.73697,1.53822 4.22266,2.16506 5.13146,2.16506 0.56933,0 1.32903,0.3541 1.68821,0.78689 0.35918,0.43278 1.12791,0.78688 1.70829,0.78688 0.58038,0 1.90885,0.21593 2.95216,0.47984 1.04331,0.26391 4.21563,0.89777 7.04959,1.4086 4.24771,0.76565 5.67576,0.82474 8.13114,0.33644 1.63817,-0.32578 4.15882,-0.73467 5.60144,-0.90865 4.9928,-0.60211 9.4505,-1.43131 11.27869,-2.098 1.71771,-0.62641 5.48197,-1.44991 11.01639,-2.41005 1.29836,-0.22524 3.42295,-0.65105 4.72131,-0.94623 1.29837,-0.29518 4.83935,-0.79826 7.86886,-1.11793 3.02951,-0.31968 8.44103,-0.94517 12.0256,-1.38998 3.58457,-0.44481 10.54851,-0.80862 15.47541,-0.80848 8.00915,2.3e-4 12.44733,0.36132 27.05636,2.20128 2.16394,0.27254 5.28809,0.63825 6.94256,0.8127 1.65446,0.17444 3.14381,0.53671 3.30964,0.80505 0.16584,0.26833 1.32021,0.48787 2.56527,0.48787 1.24505,0 3.26736,0.3541 4.49401,0.78689 1.22665,0.43278 2.9678,0.78834 3.86923,0.79011 0.90143,0.002 2.31513,0.35588 3.14155,0.78689 0.82643,0.43101 2.16843,0.78365 2.98225,0.78365 0.8138,0 2.05167,0.21748 2.75081,0.48329 0.69913,0.26582 2.96449,0.63851 5.03413,0.8282 2.06964,0.18971 4.52126,0.56239 5.44806,0.82819 2.13819,0.61323 5.19919,0.61974 6.79121,0.0145 0.6782,-0.25785 2.85674,-0.6243 4.84121,-0.81432 1.98447,-0.19003 4.02615,-0.56922 4.53707,-0.84266 0.51092,-0.27343 1.50572,-0.49716 2.21067,-0.49716 0.70496,0 1.57561,-0.35409 1.93479,-0.78688 0.35918,-0.43279 1.11888,-0.78689 1.68821,-0.78689 0.91196,0 2.55319,-0.69536 5.13146,-2.17413 0.43279,-0.24823 1.28952,-0.67014 1.90386,-0.93759 0.95687,-0.41657 10.98455,-5.98404 13.30926,-7.38944 0.43278,-0.26164 1.84918,-1.01553 3.14754,-1.67531 1.29836,-0.65978 2.47869,-1.33687 2.62295,-1.50463 0.14426,-0.16777 1.44262,-0.87596 2.88525,-1.57377 1.44262,-0.69781 2.74098,-1.38699 2.88524,-1.53152 0.24992,-0.25039 5.83487,-2.96724 9.18033,-4.46587 0.86557,-0.38774 2.51803,-1.00623 3.67213,-1.37443 1.1541,-0.3682 2.32262,-0.85733 2.59672,-1.08695 1.76559,-1.47912 2.44228,0.61139 1.06194,3.28068 -1.01161,1.95624 -0.53203,1.96354 3.60075,0.0549 1.77781,-0.82106 4.17666,-1.79891 5.33075,-2.17301 1.1541,-0.3741 2.56401,-1.00069 3.13312,-1.39242 0.56912,-0.39174 1.55553,-0.71225 2.19204,-0.71225 0.6365,0 1.51138,-0.35409 1.94416,-0.78688 0.43279,-0.43279 1.25675,-0.78689 1.83103,-0.78689 0.57428,0 1.71245,-0.33048 2.52927,-0.7344 1.90617,-0.94263 4.97709,-1.88857 6.131,-1.88857 0.49459,0 1.42209,-0.33534 2.06112,-0.74521 0.63903,-0.40987 2.04865,-0.88096 3.1325,-1.04687 1.08385,-0.16591 2.38221,-0.51918 2.88524,-0.78504 3.58337,-1.89385 20.77707,-2.9684 23.69285,-1.48072 1.89372,0.96622 1.94518,1.91971 0.12328,2.2841 -0.87019,0.17403 -2.11557,0.88424 -2.76753,1.57823 l -1.18541,1.26181 1.21636,3.27013 c 0.66901,1.79857 1.32669,4.39144 1.46156,5.76193 0.13493,1.3705 0.41821,2.49181 0.62956,2.49181 0.61246,0 -0.46032,6.75421 -1.4272,8.98601 -1.05699,2.43978 -1.48558,2.54187 -1.94229,0.46263 -0.31874,-1.45139 -1.11885,-2.47318 -1.57744,-2.0146 -0.40153,0.40155 -2.88289,10.34821 -2.88289,11.55631 0,0.69235 -0.25359,1.51242 -0.56357,1.82237 -0.30992,0.30995 -0.63312,1.12437 -0.71816,1.80984 -0.2869,2.31193 -3.84079,10.47865 -5.93616,13.64105 -0.50229,0.7581 -1.37726,2.11548 -1.94439,3.01639 -1.43649,2.28194 -2.3787,2.11313 -2.3787,-0.42618 0,-2.38155 -0.77912,-4.75546 -1.56076,-4.75546 -0.99557,0 -3.41262,2.93226 -4.99536,6.0602 -0.57635,1.13902 -1.30415,2.34349 -1.61734,2.67659 -0.31319,0.3331 -0.98491,1.92654 -1.49271,3.54098 -0.50781,1.61444 -1.13738,2.93534 -1.39905,2.93534 -0.26167,0 -0.47577,0.4213 -0.47577,0.93622 0,0.51492 -0.44353,2.22639 -0.98562,3.80328 -0.54209,1.57689 -1.29199,4.80954 -1.66646,7.18369 -0.7556,4.79061 -0.33739,7.8306 1.67945,12.20796 0.59821,1.29836 1.67826,3.65902 2.40011,5.24591 0.72185,1.58688 1.5237,3.23934 1.78189,3.67213 0.2582,0.43278 0.60879,1.14098 0.7791,1.57377 0.53659,1.36353 1.88207,4.40094 2.63307,5.94415 0.39748,0.81682 0.72273,1.71693 0.72273,2.00024 0,0.2833 0.57327,1.73958 1.27396,3.23617 1.07798,2.30251 3.45191,8.3093 4.80724,12.1637 0.20291,0.57705 1.05511,2.93771 1.89377,5.2459 0.83872,2.3082 1.71116,4.91048 1.93884,5.78284 0.22762,0.87235 0.64939,2.05268 0.93712,2.62295 0.28779,0.57026 0.78301,2.68929 1.10049,4.70897 1.71656,10.92021 2.49039,14.4579 3.7867,17.31147 0.78641,1.73115 1.93684,4.2718 2.55654,5.6459 0.6197,1.3741 1.63835,4.08885 2.26366,6.03279 0.62531,1.94393 1.44892,4.00007 1.83029,4.56919 0.38133,0.56911 0.69482,1.39534 0.69661,1.83606 0,0.44072 0.35583,1.47748 0.78688,2.3039 0.431,0.82642 0.78363,1.90052 0.78363,2.38688 0,0.48637 0.1876,1.10856 0.41684,1.38266 0.22925,0.2741 0.84297,1.91476 1.36378,3.6459 0.52081,1.73115 1.15646,3.55268 1.41256,4.04785 0.25616,0.49517 0.68848,1.79353 0.96079,2.88525 0.27232,1.09171 0.87701,3.02518 1.34384,4.2966 0.46678,1.2714 0.77634,2.80583 0.6879,3.40983 -0.13194,0.9008 -1.12299,0.10816 -5.51397,-4.41002 -7.70492,-7.92803 -8.71795,-8.91551 -8.92952,-8.70398 -0.10424,0.10425 0.0828,4.17087 0.41558,9.03693 1.26164,18.44759 0.41679,37.45828 -2.29325,51.60148 -0.69686,3.63675 -0.99866,4.89501 -2.57925,10.7541 -1.10625,4.10077 -2.58812,8.40071 -3.06434,8.8918 -0.26581,0.2741 -0.48325,0.80068 -0.48325,1.17018 0,1.16139 -5.13364,11.23063 -7.21422,14.15015 -0.64855,0.91011 -1.18578,1.85437 -1.19381,2.09836 -0.008,0.24399 -0.71622,1.13213 -1.57377,1.97367 -0.85755,0.84152 -1.55918,1.7882 -1.55918,2.10371 0,0.31552 -0.59017,1.21014 -1.31148,1.98804 -0.72131,0.7779 -1.31148,1.5427 -1.31148,1.69956 0,0.32821 -1.99198,2.38355 -2.31009,2.38355 -0.11645,0 -1.0017,0.69938 -1.96721,1.55419 -0.96552,0.85479 -1.99155,1.59729 -2.28007,1.64997 -0.28853,0.0527 -1.40515,0.65167 -2.48138,1.33106 -1.07624,0.6794 -2.08747,1.23527 -2.24719,1.23527 -0.32798,0 -3.40258,3.06824 -3.40258,3.39555 0,0.1165 -0.7082,0.9872 -1.57377,1.93488 -0.86557,0.94769 -1.57377,1.89522 -1.57377,2.10565 0,0.53131 -10.64903,11.18216 -14.16393,14.16634 -1.58689,1.34729 -3.59345,3.05728 -4.45902,3.8 -0.86557,0.74272 -1.75082,1.35069 -1.96721,1.35104 -0.55992,10e-4 -0.48751,-1.26923 0.10619,-1.86294 0.2748,-0.27479 0.66653,-3.08101 0.87051,-6.23604 0.36938,-5.71347 0.36671,-5.73234 -0.66876,-4.72003 -0.5718,0.559 -1.60935,1.8426 -2.30566,2.85244 -2.47179,3.58473 -7.64652,8.99022 -11.79301,12.31888 -1.43149,1.14917 -2.68141,2.27048 -2.77758,2.49181 -0.0962,0.22133 -0.48962,0.40242 -0.87432,0.40242 -0.38469,0 -0.77814,0.21024 -0.87432,0.4672 -0.25123,0.67125 -9.98143,6.87706 -10.78266,6.87706 -0.36898,0 -0.67089,0.20854 -0.67089,0.46341 0,0.54758 -1.90763,1.12623 -2.32776,0.70609 -0.1596,-0.15959 0.29887,-1.06242 1.0188,-2.0063 0.71993,-0.94388 1.30896,-1.9511 1.30896,-2.23826 0,-0.28717 0.30787,-0.83407 0.68415,-1.21533 1.09815,-1.1127 3.47884,-7.48914 2.87784,-7.70797 -0.29469,-0.1073 -0.68553,0.0424 -0.86856,0.33269 -0.52735,0.83639 -5.77912,3.5259 -11.6113,5.94631 -4.50901,1.87129 -5.44522,2.46198 -5.88035,3.7102 -0.28464,0.81651 -0.7305,1.48457 -0.9908,1.48457 -0.2603,0 -0.47327,0.38293 -0.47327,0.85095 0,0.9264 -3.86085,8.3414 -5.04132,9.68216 -0.40104,0.45551 -0.72917,1.02422 -0.72917,1.26381 0,0.7351 -4.236,6.20046 -6.21149,8.01416 -1.02602,0.942 -2.75517,1.95229 -3.84257,2.2451 -2.18854,0.58931 -2.74286,1.46586 -4.62962,7.32087 -0.60435,1.87541 -1.24242,3.76394 -1.41795,4.19673 -0.17552,0.43278 -0.3807,1.08247 -0.45594,1.44374 -0.0752,0.36128 -0.62976,1.67515 -1.23224,2.91973 -0.60249,1.24457 -1.09544,2.66046 -1.09544,3.14641 0,0.48596 -0.23606,0.88356 -0.52459,0.88356 -0.28852,0 -0.52459,0.36748 -0.52459,0.81663 0,0.75221 -4.61311,10.65201 -5.24178,11.24894 -0.15193,0.14427 -0.89499,1.20656 -1.65124,2.36066 -1.98356,3.02704 -4.0253,5.25655 -4.43691,4.84496 -0.3379,-0.33794 0.46451,-4.1653 1.34569,-6.41873 0.84831,-2.16934 2.73885,-11.3547 2.40562,-11.68792 -0.56923,-0.56924 -1.32277,1.07268 -1.33138,2.90103 -0.004,0.93771 -0.25803,1.70492 -0.56358,1.70492 -0.30556,0 -0.42662,0.20863 -0.26904,0.46358 0.15759,0.255 -0.17677,1.84845 -0.74302,3.54099 -0.56625,1.69259 -1.03535,3.46303 -1.04244,3.93437 -0.007,0.47134 -1.01618,1.73367 -2.24241,2.80519 -4.57137,3.99455 -10.68736,9.51591 -12.66868,11.43707 -2.03033,1.96863 -2.05541,1.97649 -3.148,0.98371 -0.60574,-0.5504 -2.39971,-1.44341 -3.9866,-1.98447 -2.61953,-0.89312 -4.69694,-0.98372 -22.55737,-0.98372 -18.11579,0 -19.95852,0.083 -23.29199,1.04918 -2.41896,0.70112 -3.70101,1.35376 -3.86446,1.96722 -0.40128,1.50604 -1.24815,1.02258 -5.12811,-2.92743 z m 6.90902,-4.9356 c 1.83102,-0.82235 4.30678,-0.91169 25.11324,-0.90628 20.79861,0.005 23.28465,0.0963 25.13088,0.91955 1.95122,0.87008 2.10084,0.86956 3.13808,-0.0115 1.46232,-1.24244 4.96951,-4.39969 6.02597,-5.42479 0.46894,-0.45498 1.73786,-1.48627 2.81982,-2.29178 1.28807,-0.95889 1.96722,-1.88506 1.96722,-2.68275 0,-0.67001 0.23606,-1.36414 0.52459,-1.54245 0.28852,-0.17831 0.52459,-0.87161 0.52459,-1.54067 0,-0.66906 0.3541,-2.06395 0.78688,-3.09975 0.43279,-1.03581 0.78689,-2.59835 0.78689,-3.47237 0,-1.08903 0.597,-2.24992 1.8971,-3.68898 1.80927,-2.00265 2.04176,-2.09987 5.02108,-2.09987 3.34595,0 4.26948,-0.51204 4.74748,-2.63217 0.38282,-1.69802 1.44622,-4.69825 2.13498,-6.02357 0.29988,-0.57705 0.72981,-1.87541 0.95538,-2.88525 0.22557,-1.00983 0.56826,-2.54426 0.76153,-3.40983 0.57126,-2.55845 4.51041,-6.03279 6.83987,-6.03279 1.69817,-2.1e-4 8.06881,-7.8286 8.06881,-9.91535 0,-0.31716 0.21297,-0.57666 0.47327,-0.57666 0.2603,0 0.72902,-0.64918 1.0416,-1.44263 0.31258,-0.79344 0.78806,-1.79672 1.05661,-2.22951 0.26855,-0.43278 1.27524,-2.3976 2.23709,-4.36626 1.89924,-3.88729 4.80994,-6.95109 7.11263,-7.48676 1.97783,-0.4601 14.11703,-6.29833 14.54893,-6.99717 0.19024,-0.3078 1.59238,-0.55964 3.11588,-0.55964 2.49369,0 2.93539,0.18175 4.42806,1.82208 0.91193,1.00215 1.65806,2.06444 1.65806,2.36066 0,0.9393 0.54346,0.61011 4.09063,-2.47782 4.41328,-3.84193 4.77038,-4.20131 6.64484,-6.68721 0.85533,-1.13433 1.91762,-2.467 2.36065,-2.96149 1.48653,-1.65916 2.11699,-2.50153 2.11699,-2.82853 0,-0.17864 0.69004,-1.01483 1.53342,-1.85821 1.27957,-1.27957 1.96099,-1.53342 4.11625,-1.53342 2.24865,0 2.8308,0.24083 4.49937,1.86132 1.05409,1.02372 1.91654,2.34423 1.91654,2.93445 0,0.86355 0.50455,0.54966 2.58339,-1.60718 3.53282,-3.66538 8.85521,-9.86847 10.13694,-11.81429 1.16914,-1.77491 5.80807,-5.26911 8.98583,-6.76843 1.1283,-0.53234 2.37934,-1.24054 2.78011,-1.57377 1.61699,-1.34447 8.70415,-11.095 9.78218,-13.45833 0.19741,-0.43279 1.06516,-1.96721 1.92827,-3.40983 0.8631,-1.44263 1.70838,-2.97705 1.87829,-3.40984 0.16997,-0.43279 0.66733,-1.73115 1.10526,-2.88525 0.43798,-1.1541 1.00081,-2.49655 1.25078,-2.98324 2.00929,-3.91217 5.11161,-15.62003 6.2987,-23.77086 0.29419,-2.01967 0.81836,-4.85246 1.16485,-6.29508 0.44223,-1.8413 0.62998,-9.68393 0.62998,-26.31713 v -23.69419 l 1.27177,-1.35499 c 1.28063,-1.36443 4.76102,-1.97147 4.76102,-0.83041 0,0.28852 0.3541,0.52459 0.78689,0.52459 1.30586,0 0.83593,-2.02189 -1.62539,-6.99334 -0.40441,-0.81682 -0.73527,-1.89301 -0.73527,-2.39153 0,-0.49853 -0.3466,-1.36464 -0.7702,-1.9247 -0.42361,-0.56007 -0.77771,-1.53552 -0.78689,-2.16767 -0.009,-0.63215 -0.21775,-1.27362 -0.46347,-1.42549 -0.24572,-0.15187 -0.86579,-1.40514 -1.37794,-2.78506 -1.02164,-2.75267 -2.06998,-5.33116 -3.1529,-7.75484 -0.67603,-1.51299 -1.59973,-6.29383 -2.93938,-15.21311 -0.34665,-2.3082 -0.79538,-4.43279 -0.99709,-4.72131 -0.2017,-0.28853 -1.03108,-2.59956 -1.84299,-5.13563 -0.81191,-2.53606 -1.67454,-4.7336 -1.9169,-4.88341 -0.24242,-0.14982 -0.44076,-0.73379 -0.44076,-1.29773 0,-0.56394 -0.22348,-1.43525 -0.49663,-1.93625 -0.2731,-0.50101 -0.98308,-2.39235 -1.57766,-4.20297 -0.59457,-1.81064 -1.29114,-3.69916 -1.5479,-4.19673 -0.25675,-0.49756 -0.87499,-1.96696 -1.37384,-3.26532 -0.49886,-1.29836 -1.70058,-4.07873 -2.6705,-6.17861 -0.96991,-2.09988 -1.90994,-4.40152 -2.08895,-5.11475 -0.17901,-0.71324 -0.49229,-1.2968 -0.69618,-1.2968 -0.20389,0 -0.91241,-1.53443 -1.57448,-3.40984 -0.66208,-1.87541 -1.41393,-3.40983 -1.67079,-3.40983 -0.25685,0 -0.46701,-0.25941 -0.46701,-0.57646 0,-0.31705 -0.31826,-1.32033 -0.70724,-2.22951 -3.31172,-7.74058 -3.3121,-12.62243 -0.002,-24.99731 0.42447,-1.58689 1.09004,-3.59345 1.47905,-4.45902 0.389,-0.86558 1.13208,-2.63607 1.65129,-3.93443 1.32888,-3.32307 5.79991,-9.8868 8.21872,-12.06557 1.74546,-1.57227 2.50313,-1.87375 5.27302,-2.09836 3.11428,-0.25254 3.25335,-0.32576 3.7366,-1.96722 0.27604,-0.9377 0.68915,-1.70491 0.91803,-1.70491 0.22888,0 0.4127,-0.29509 0.4085,-0.65574 -0.005,-0.36066 0.48687,-2.3082 1.09125,-4.32787 2.26686,-7.57556 2.50571,-8.47394 3.13815,-11.80328 0.69781,-3.67337 2.50382,-6.29508 4.33653,-6.29508 0.90806,0 0.99006,-0.28883 0.76039,-2.67887 -0.14158,-1.47337 -0.49054,-2.83075 -0.77545,-3.01639 -0.59735,-0.3892 -1.17476,-2.50992 -1.56244,-5.73852 l -0.27058,-2.25344 -2.43709,0.3076 c -2.52312,0.31845 -10.56152,2.17023 -12.4043,2.85753 -0.57705,0.21522 -3.17377,1.04128 -5.77049,1.83569 -2.59672,0.79441 -5.3479,1.77547 -6.11373,2.18014 -0.76583,0.40467 -1.74212,0.73577 -2.16954,0.73577 -0.42743,0 -1.45329,0.35264 -2.27972,0.78365 -0.82642,0.43101 -1.85668,0.79261 -2.28947,0.80357 -0.43279,0.011 -1.24512,0.36651 -1.80518,0.79011 -0.56007,0.42361 -1.30771,0.77021 -1.66143,0.77021 -0.35372,0 -1.78401,0.51249 -3.17842,1.13888 -6.53308,2.93474 -10.47244,3.39122 -12.53595,1.45265 l -1.15025,-1.0806 -4.91635,2.40099 c -2.704,1.32054 -5.27045,2.60568 -5.70324,2.85587 -0.43279,0.25018 -1.49508,0.77694 -2.36066,1.17058 -0.86557,0.39363 -1.6918,0.85259 -1.83606,1.01992 -0.14426,0.16732 -0.97049,0.66039 -1.83607,1.09571 -1.41229,0.71028 -4.28063,2.26691 -9.70491,5.26679 -1.00984,0.55849 -3.0164,1.70751 -4.45902,2.55338 -5.18349,3.03929 -11.23585,5.64424 -16,6.88644 -5.81697,1.51672 -17.03169,2.11832 -23.86885,1.28042 -3.82453,-0.4687 -11.76847,-1.90436 -12.85246,-2.32274 -1.10779,-0.42756 -6.45717,-1.58361 -10.4918,-2.26738 -1.87541,-0.31783 -3.81975,-0.78906 -4.32075,-1.04718 -0.50088,-0.25812 -1.53595,-0.46931 -2.30004,-0.46931 -0.7641,0 -2.83287,-0.22595 -4.59729,-0.50212 -4.84204,-0.75788 -16.71033,-2.07916 -22.61786,-2.51801 -6.57906,-0.48874 -20.81841,0.59417 -33.10966,2.51801 -1.76442,0.27617 -3.93409,0.50212 -4.8215,0.50212 -0.88741,0 -1.75937,0.23607 -1.93769,0.52459 -0.17832,0.28853 -1.03313,0.52459 -1.89958,0.52459 -1.66076,0 -11.00025,1.9188 -12.78894,2.62749 -3.42056,1.35524 -14.71248,2.81567 -21.7705,2.81567 -9.79136,0 -15.1981,-1.0439 -23.08196,-4.45653 -1.58689,-0.68691 -2.96394,-1.42597 -3.06011,-1.64236 -0.0962,-0.2164 -0.44689,-0.39345 -0.77936,-0.39345 -0.79105,0 -6.23801,-2.71819 -6.91463,-3.4506 -0.28853,-0.31231 -1.94098,-1.25714 -3.67213,-2.0996 -1.73115,-0.84247 -3.26558,-1.67467 -3.40984,-1.84934 -0.14426,-0.17466 -1.79672,-1.13318 -3.67213,-2.13005 -3.60623,-1.91686 -5.52879,-2.94729 -6.81967,-3.65511 -2.863,-1.56985 -8.34141,-4.12677 -8.84193,-4.12677 -0.33038,0 -0.60069,-0.23607 -0.60069,-0.52459 0,-0.86655 -1.30187,-0.5936 -2.5021,0.52459 -1.29529,1.20674 -5.4007,1.44302 -7.83388,0.45087 -0.80702,-0.32907 -2.1755,-0.89515 -3.04107,-1.25795 -0.86558,-0.3628 -2.81312,-1.09323 -4.32787,-1.62318 -1.51476,-0.52995 -2.7541,-1.1442 -2.7541,-1.36501 0,-0.2208 -0.53115,-0.40896 -1.18033,-0.41814 -0.64918,-0.009 -1.63856,-0.36327 -2.19862,-0.78688 -0.56007,-0.42361 -1.42618,-0.7702 -1.9247,-0.7702 -0.49853,0 -1.57472,-0.33071 -2.39154,-0.7349 -1.86253,-0.92163 -7.87165,-2.9853 -9.61629,-3.30245 -0.72131,-0.13112 -1.7836,-0.43768 -2.36065,-0.68124 -1.48534,-0.62693 -9.49357,-2.47653 -12.45902,-2.87757 l -2.4918,-0.33699 v 1.69591 c 0,0.93274 -0.56283,3.13082 -1.25074,4.8846 -0.68791,1.75378 -1.40681,4.07395 -1.59754,5.15591 -0.31751,1.80104 -0.24509,1.96798 0.8573,1.97628 2.19034,0.0165 4.61393,3.55677 4.61393,6.73984 0,0.78909 0.22237,1.65897 0.49416,1.93307 0.2718,0.27409 0.73736,2.01441 1.03458,3.86736 0.29723,1.85295 0.78305,3.61164 1.07961,3.90819 0.29655,0.29656 0.53919,1.31822 0.53919,2.27035 0,0.95213 0.23328,1.73114 0.51839,1.73114 0.28512,0 0.66704,0.92963 0.84873,2.06583 0.50407,3.15229 1.80978,4.22926 5.12754,4.22926 2.73115,0 2.83807,0.0595 5.88759,3.27869 1.70826,1.80327 3.57519,4.22295 4.14873,5.37705 0.57354,1.15409 1.33787,2.28713 1.69853,2.51787 0.36066,0.23073 0.65574,0.76508 0.65574,1.18744 0,0.42237 0.22577,1.17785 0.50172,1.67885 1.40731,2.55511 4.2282,10.77985 4.76564,13.89497 0.34378,1.99266 0.51528,6.35163 0.39215,9.96721 -0.21254,6.24102 -0.28209,6.56154 -2.41871,11.1471 -1.20993,2.59672 -2.43408,5.13122 -2.72034,5.63223 -0.28625,0.501 -0.52046,1.26821 -0.52046,1.70491 0,0.4367 -0.23157,0.79401 -0.5146,0.79401 -0.28303,0 -0.67661,0.64552 -0.87463,1.43449 -0.19801,0.78897 -1.02875,2.78228 -1.84606,4.42959 -0.81731,1.64731 -1.48602,3.24761 -1.48602,3.55624 0,0.30862 -0.20134,0.97104 -0.44741,1.47204 -4.0043,8.15277 -9.35626,23.87387 -10.31099,30.28797 -1.52194,10.22468 -1.98767,12.60338 -2.69255,13.75203 -0.39214,0.63903 -0.71299,1.61341 -0.71299,2.16528 0,0.55187 -0.3541,1.29728 -0.78688,1.65646 -0.43279,0.35918 -0.78689,1.18541 -0.78689,1.83606 0,0.65066 -0.3541,1.47689 -0.78688,1.83607 -0.43279,0.35918 -0.78689,0.98082 -0.78689,1.38142 0,0.40061 -0.46014,1.72908 -1.02254,2.95217 -0.56239,1.22308 -1.95951,4.70248 -3.10472,7.73198 -1.1452,3.02951 -2.22225,5.8623 -2.39344,6.29509 -0.25541,0.64571 0.1369,0.7566 2.18669,0.61809 2.27467,-0.1537 2.65846,-0.003 4.2938,1.69256 l 1.79585,1.86137 -0.73847,11.42218 c -1.20304,18.60762 -0.86185,31.16513 1.14415,42.11072 0.29083,1.58688 0.71776,4.30164 0.94873,6.03278 0.23098,1.73115 0.67524,3.85574 0.98725,4.72132 0.31201,0.86557 0.84447,2.99016 1.18324,4.72131 0.33877,1.73115 0.94169,3.89141 1.33983,4.80059 0.39814,0.90918 0.72389,2.10131 0.72389,2.64918 0,0.54787 0.21468,1.22039 0.47705,1.49449 0.26238,0.2741 1.24817,2.38689 2.19065,4.69508 0.94247,2.3082 2.02616,4.56941 2.40819,5.02492 0.38203,0.4555 0.6946,1.11424 0.6946,1.46386 0,0.55764 1.85791,3.54772 2.65029,4.26532 0.15929,0.14426 0.67962,1.10139 1.15627,2.12695 0.47665,1.02557 1.46764,2.51314 2.20218,3.30572 0.73454,0.79258 1.33553,1.65441 1.33553,1.91516 0,0.78297 5.62125,6.29152 6.42024,6.29152 0.40734,0 2.13927,1.07371 3.84872,2.38603 4.36335,3.34969 4.36033,3.34687 7.5671,7.05951 4.97293,5.7574 7.47754,8.5908 9.27173,10.48888 1.67246,1.76931 1.73573,1.79032 1.74012,0.57759 0.003,-0.74128 0.74844,-1.98094 1.81461,-3.0164 1.54946,-1.50482 2.17719,-1.75791 4.3601,-1.75791 1.76962,0 2.86126,0.2981 3.56698,0.97406 1.75681,1.68269 3.37761,3.73452 3.37761,4.27584 0,0.28632 0.19605,0.52059 0.43566,0.52059 0.23961,0 1.22715,1.12132 2.19453,2.49181 2.04143,2.8921 3.94273,4.82985 7.59932,7.74498 1.44262,1.1501 2.70164,2.26813 2.79781,2.48453 0.28068,0.63152 1.13661,0.4528 1.13661,-0.23732 0,-0.34692 0.75451,-1.40922 1.67668,-2.36066 1.4367,-1.4823 2.03604,-1.72989 4.18748,-1.72989 2.00555,0 3.19642,0.41964 5.91787,2.08535 1.87388,1.14694 4.00262,2.23483 4.73054,2.41753 0.72793,0.18269 1.3235,0.54264 1.3235,0.79989 0,0.25724 0.57623,0.46772 1.28051,0.46772 0.70429,0 1.42245,0.22965 1.59593,0.51034 0.17347,0.28068 1.25279,0.76274 2.3985,1.07125 3.33561,0.89819 5.47771,3.23459 8.33862,9.09501 1.42931,2.92787 3.43623,6.6138 4.45981,8.19096 1.02358,1.57715 1.86105,3.03332 1.86105,3.23593 0,0.75631 3.87428,4.65061 4.62671,4.65061 0.87057,0 3.66776,1.95536 6.23899,4.36135 1.19804,1.12105 1.78436,2.23723 2.02774,3.86021 0.18831,1.25573 0.55121,2.41221 0.80644,2.56995 0.25523,0.15774 0.46406,0.61807 0.46406,1.02296 0,0.4049 0.87744,2.98769 1.94987,5.73954 l 1.94986,5.00337 h 3.19313 c 2.92558,0 3.32678,0.14285 4.78821,1.70492 1.09013,1.1652 1.89222,2.86737 2.53373,5.37705 0.51626,2.01967 1.14315,3.89639 1.39308,4.17049 0.24993,0.2741 0.45441,1.26662 0.45441,2.20564 0,1.67176 0.62126,2.53712 3.72618,5.19008 0.69159,0.5909 2.90077,2.53844 4.9093,4.32787 2.00853,1.78938 3.69118,3.25346 3.73922,3.25346 0.0481,0 1.00141,-0.41049 2.11862,-0.91221 z"
         id="path1449" />
    </g>
  </g>
</svg>
